<svg width="1200" height="620" viewBox="0 0 1200 620" xmlns="http://www.w3.org/2000/svg" role="img" aria-labelledby="t d">
  <title id="t">Tenant Isolation C4 Diagram</title>
  <desc id="d">C4 style container and trust boundary map for tenant isolation</desc>
  <rect width="1200" height="620" fill="#0a1222"/>
  <text x="64" y="82" fill="#e2e8f0" font-family="Segoe UI" font-size="30" font-weight="700">Tenant Isolation - C4 Container View</text>

  <rect x="52" y="112" width="1096" height="470" rx="18" fill="#111b2e" stroke="#334155"/>
  <rect x="94" y="154" width="480" height="386" rx="16" fill="#0f1a30" stroke="#38bdf8" stroke-opacity="0.5"/>
  <text x="114" y="186" fill="#7dd3fc" font-size="16" font-family="Segoe UI">Application Zone</text>

  <rect x="626" y="154" width="478" height="386" rx="16" fill="#0e1f28" stroke="#34d399" stroke-opacity="0.5"/>
  <text x="646" y="186" fill="#86efac" font-size="16" font-family="Segoe UI">Data Zone</text>

  <rect x="126" y="226" width="190" height="96" rx="12" fill="#1e293b" stroke="#60a5fa"/>
  <text x="146" y="282" fill="#e2e8f0" font-size="18" font-family="Segoe UI">Gateway / Auth</text>

  <rect x="352" y="226" width="190" height="96" rx="12" fill="#1e293b" stroke="#a78bfa"/>
  <text x="372" y="282" fill="#e2e8f0" font-size="18" font-family="Segoe UI">Policy Engine</text>

  <rect x="666" y="226" width="190" height="96" rx="12" fill="#1e293b" stroke="#34d399"/>
  <text x="690" y="282" fill="#e2e8f0" font-size="18" font-family="Segoe UI">Postgres + RLS</text>

  <rect x="892" y="226" width="180" height="96" rx="12" fill="#1e293b" stroke="#f59e0b"/>
  <text x="914" y="282" fill="#e2e8f0" font-size="18" font-family="Segoe UI">Audit Logs</text>

  <line x1="316" y1="274" x2="352" y2="274" stroke="#93c5fd" stroke-width="3"/>
  <line x1="542" y1="274" x2="666" y2="274" stroke="#93c5fd" stroke-width="3"/>
  <line x1="856" y1="274" x2="892" y2="274" stroke="#93c5fd" stroke-width="3"/>
</svg>