<svg width="1200" height="620" viewBox="0 0 1200 620" xmlns="http://www.w3.org/2000/svg" role="img" aria-labelledby="t d">
  <title id="t">Payment Retry Incident Timeline</title>
  <desc id="d">Timeline style incident flow for payment retry storm</desc>
  <rect width="1200" height="620" fill="#0a1222"/>
  <text x="64" y="82" fill="#e2e8f0" font-family="Segoe UI" font-size="30" font-weight="700">Payment Retry Storm - Incident Timeline</text>
  <rect x="52" y="112" width="1096" height="470" rx="18" fill="#111b2e" stroke="#334155"/>

  <line x1="130" y1="330" x2="1080" y2="330" stroke="#475569" stroke-width="4"/>

  <circle cx="180" cy="330" r="16" fill="#ef4444"/><text x="152" y="370" fill="#fecaca" font-size="13" font-family="Segoe UI">12:05</text>
  <rect x="120" y="214" width="120" height="84" rx="12" fill="#3b1f2c" stroke="#fb7185"/><text x="136" y="262" fill="#fee2e2" font-size="16" font-family="Segoe UI">Latency spike</text>

  <circle cx="430" cy="330" r="16" fill="#f59e0b"/><text x="402" y="370" fill="#fde68a" font-size="13" font-family="Segoe UI">12:09</text>
  <rect x="360" y="214" width="140" height="84" rx="12" fill="#402d1f" stroke="#f59e0b"/><text x="374" y="262" fill="#fef3c7" font-size="16" font-family="Segoe UI">Retries sync</text>

  <circle cx="680" cy="330" r="16" fill="#38bdf8"/><text x="652" y="370" fill="#bae6fd" font-size="13" font-family="Segoe UI">12:13</text>
  <rect x="610" y="214" width="140" height="84" rx="12" fill="#1b3148" stroke="#38bdf8"/><text x="624" y="262" fill="#e0f2fe" font-size="16" font-family="Segoe UI">Breaker trips</text>

  <circle cx="930" cy="330" r="16" fill="#22c55e"/><text x="902" y="370" fill="#bbf7d0" font-size="13" font-family="Segoe UI">12:21</text>
  <rect x="860" y="214" width="140" height="84" rx="12" fill="#1f3a2d" stroke="#22c55e"/><text x="882" y="262" fill="#dcfce7" font-size="16" font-family="Segoe UI">Stabilized</text>
</svg>